<svg width="229" height="40" viewBox="0 0 229 40" fill="none" xmlns="http://www.w3.org/2000/svg">
<path d="M4.47075 22.2656C4.47075 17.4119 7.47714 14.6591 11.5702 14.6591C15.5364 14.6591 17.9452 17.2489 17.9452 21.6136V39H22.2193V21.3239C22.2193 14.2244 18.4342 10.8196 12.8017 10.8196C8.60001 10.8196 5.99205 12.7031 4.68808 15.5284H4.32586V11.1818H0.1966V39H4.47075V22.2656ZM41.693 39.5795C47.3435 39.5795 51.4728 36.7543 52.7768 32.5526L48.6475 31.3935C47.5609 34.2912 45.0435 35.7401 41.693 35.7401C36.6763 35.7401 33.2171 32.4982 33.0179 26.5398H53.2114V24.7287C53.2114 14.3693 47.0538 10.8196 41.2583 10.8196C33.7242 10.8196 28.7256 16.7599 28.7256 25.3082C28.7256 33.8565 33.6518 39.5795 41.693 39.5795ZM33.0179 22.8452C33.3077 18.5167 36.3684 14.6591 41.2583 14.6591C45.8947 14.6591 48.8648 18.1364 48.8648 22.8452H33.0179ZM77.2445 27.6264C77.2445 32.8423 73.2601 35.233 70.0726 35.233C66.5229 35.233 63.9873 32.625 63.9873 28.5682V11.1818H59.7132V28.858C59.7132 35.9574 63.4802 39.3622 68.6962 39.3622C72.8979 39.3622 75.6507 37.1165 76.9547 34.2912H77.2445V39H81.5186V11.1818H77.2445V27.6264ZM93.6211 22.2656C93.6211 17.4119 96.6275 14.6591 100.721 14.6591C104.687 14.6591 107.096 17.2489 107.096 21.6136V39H111.37V21.3239C111.37 14.2244 107.585 10.8196 101.952 10.8196C97.7504 10.8196 95.1424 12.7031 93.8385 15.5284H93.4763V11.1818H89.347V39H93.6211V22.2656ZM130.843 39.5795C136.494 39.5795 140.623 36.7543 141.927 32.5526L137.798 31.3935C136.711 34.2912 134.194 35.7401 130.843 35.7401C125.827 35.7401 122.367 32.4982 122.168 26.5398H142.362V24.7287C142.362 14.3693 136.204 10.8196 130.409 10.8196C122.875 10.8196 117.876 16.7599 117.876 25.3082C117.876 33.8565 122.802 39.5795 130.843 39.5795ZM122.168 22.8452C122.458 18.5167 125.519 14.6591 130.409 14.6591C135.045 14.6591 138.015 18.1364 138.015 22.8452H122.168ZM160.962 11.1818H155.021V4.51704H150.747V11.1818H146.545V14.804H150.747V32.1903C150.747 37.044 154.659 39.3622 158.281 39.3622C159.875 39.3622 160.889 39.0724 161.469 38.8551L160.599 35.0156C160.237 35.0881 159.658 35.233 158.716 35.233C156.832 35.233 155.021 34.6534 155.021 31.0312V14.804H160.962V11.1818ZM167.391 39H171.665V11.1818H167.391V39ZM169.564 6.54546C171.23 6.54546 172.607 5.24148 172.607 3.64773C172.607 2.05398 171.23 0.75 169.564 0.75C167.898 0.75 166.522 2.05398 166.522 3.64773C166.522 5.24148 167.898 6.54546 169.564 6.54546ZM190.795 39.5795C196.952 39.5795 201.009 35.8125 201.734 30.8864H197.459C196.663 33.929 194.127 35.7401 190.795 35.7401C185.724 35.7401 182.464 31.5384 182.464 25.0909C182.464 18.7884 185.796 14.6591 190.795 14.6591C194.562 14.6591 196.807 16.9773 197.459 19.5128H201.734C201.009 14.2969 196.59 10.8196 190.722 10.8196C183.188 10.8196 178.189 16.7599 178.189 25.2358C178.189 33.5668 182.971 39.5795 190.795 39.5795ZM227.686 17.4119C226.346 13.4638 223.34 10.8196 217.834 10.8196C211.966 10.8196 207.62 14.152 207.62 18.8608C207.62 22.7003 209.902 25.272 215.009 26.4673L219.645 27.554C222.452 28.206 223.774 29.5462 223.774 31.4659C223.774 33.8565 221.239 35.8125 217.254 35.8125C213.759 35.8125 211.568 34.3093 210.807 31.321L206.75 32.3352C207.746 37.0621 211.64 39.5795 217.327 39.5795C223.792 39.5795 228.193 36.0479 228.193 31.2486C228.193 27.3729 225.767 24.9279 220.804 23.7145L216.675 22.7003C213.379 21.8853 211.894 20.7805 211.894 18.6435C211.894 16.2528 214.429 14.5142 217.834 14.5142C221.565 14.5142 223.104 16.5788 223.847 18.4986L227.686 17.4119Z" fill="#5777BC"/>
</svg>
